<?xml version="1.0" encoding="utf-8"?>
<!-- Generator: Adobe Illustrator 19.2.0, SVG Export Plug-In . SVG Version: 6.00 Build 0)  -->
<svg version="1.1" id="Layer_2" xmlns="http://www.w3.org/2000/svg" xmlns:xlink="http://www.w3.org/1999/xlink" x="0px" y="0px"
	 viewBox="0 0 191.3 36.9" style="enable-background:new 0 0 191.3 36.9;" xml:space="preserve">
<style type="text/css">
	.st0{fill:#069BD7;}
</style>
<path class="st0" d="M65.8,23.2c-0.1,1.6-1.4,6-7.1,6c-5.8,0-7.2-4.4-7.2-7.8c0-5,2.2-8.7,7.5-8.7c2.5,0,6.5,1.1,6.8,5.9h-4.2
	c-0.2-1-0.8-2.6-2.7-2.5c-2.5,0-3.2,2.5-3.2,4.6c0,1.7,0.1,5,3.2,5c2.1,0,2.7-1.9,2.7-2.7L65.8,23.2 M82.9,21.1c0-5.6-3.8-8.2-8-8.2
	c-4.2,0-8,2.5-8,8.2s3.8,8.2,8,8.2C79.2,29.3,82.9,26.7,82.9,21.1 M78.7,21.1c0,1.9-0.6,4.8-3.8,4.8s-3.8-2.7-3.8-4.8
	s0.6-4.8,3.8-4.8C78,16.4,78.7,19.2,78.7,21.1z M98.9,28.9h-4.1v-9.5c0-1.1-0.1-3.1-2.6-3.1c-1.8,0-3.2,1.3-3.2,3.7v8.9h-4.1V13.3
	h3.9v2.3h0.1c0.6-0.9,1.7-2.7,4.7-2.7c3.1,0,5.4,1.8,5.4,5.2L98.9,28.9 M117.7,11.6h-11.2v4.4h10.3v3.7h-10.3v5.5h11.6V29h-16V7.9
	h15.5L117.7,11.6 M134.9,7.9h-4.1v7.5h-0.1c-0.7-1-1.9-2.4-4.6-2.4c-3.4,0-6.5,2.6-6.5,8c0,4.2,1.9,8.3,6.5,8.3
	c1.7,0,3.5-0.6,4.6-2.4h0.1v1.9h4L134.9,7.9 M123.9,21.2c0-2.5,0.9-4.8,3.5-4.8c2.9,0,3.5,2.5,3.5,5c0,2.3-1,4.4-3.7,4.4
	C124.6,25.9,123.9,23,123.9,21.2z M137.7,28.9h4.1V13.3h-4.1V28.9z M137.7,11.4h4.1V7.6h-4.1V11.4z M153.7,18
	c-0.2-1-0.6-2.1-2.7-2.1s-2.5,0.8-2.5,1.5c0,2.5,9.8,0.7,9.8,6.4c0,4.6-4.3,5.4-6.8,5.4c-3.5,0-7.4-1.3-7.5-5.4h4.2
	c0,1.4,0.8,2.3,3.4,2.3c2.1,0,2.6-1,2.6-1.6c0-2.6-9.7-0.7-9.7-6.5c0-2.3,1.4-5.2,6.3-5.2c3.1,0,6.6,0.8,7,5.1h-4 M175.4,21.1
	c0-5.6-3.8-8.2-8-8.2c-4.2,0-8,2.5-8,8.2s3.8,8.2,8,8.2C171.6,29.3,175.4,26.7,175.4,21.1 M171,21.1c0,1.9-0.6,4.8-3.8,4.8
	s-3.8-2.7-3.8-4.8s0.6-4.8,3.8-4.8C170.5,16.4,171,19.2,171,21.1z M191.3,28.9h-4.1v-9.5c0-1.1-0.1-3.1-2.6-3.1
	c-1.8,0-3.2,1.3-3.2,3.7v8.9h-4.1V13.3h3.9v2.3h0.1c0.6-0.9,1.7-2.7,4.7-2.7c3.1,0,5.4,1.8,5.4,5.2L191.3,28.9 M43.9,32.1H18.5
	c-7.5,0-13.7-6.2-13.7-13.7S11,4.7,18.5,4.7H44V0H18.5C8.2-0.1,0,8.2,0,18.4s8.2,18.5,18.5,18.5H44v-4.8 M8.2,18.4
	C8.2,24.2,13,29,18.8,29h25.1v-4.8H18.8c-3.2,0-5.8-2.6-5.8-5.8s2.6-5.8,5.8-5.8h25.1V7.8H18.8C13,7.9,8.2,12.6,8.2,18.4 M43.9,16
	H18.6c-1.4,0-2.4,1-2.4,2.4s1,2.4,2.4,2.4h25.2L43.9,16"/>
</svg>
