<svg width="116" height="94" viewBox="0 0 116 94" fill="none" xmlns="http://www.w3.org/2000/svg">
<path d="M44.2859 89.0814C66.4974 89.0814 84.5034 71.0754 84.5034 48.8639C84.5034 26.6525 66.4974 8.64648 44.2859 8.64648C22.0744 8.64648 4.06836 26.6525 4.06836 48.8639C4.06836 71.0754 22.0744 89.0814 44.2859 89.0814Z" fill="white"/>
<path d="M44.3879 52.9844C33.1756 52.9844 24.0859 62.074 24.0859 73.2864V83.6496L28.032 85.4077C31.6407 87.0133 35.467 88.0746 39.3805 88.559C42.8149 88.9836 46.2875 88.9564 49.7165 88.4828L49.7982 88.472C53.2762 87.993 56.678 87.0514 59.911 85.6798L64.6899 83.655V73.2918C64.6899 62.0795 55.6003 52.9898 44.3879 52.9898V52.9844Z" fill="#C6EAF2"/>
<path d="M52.2079 54.6012C49.7749 53.5724 47.097 53.001 44.2885 53.001C33.0489 53.001 23.9375 62.1124 23.9375 73.3519V77.4994" stroke="#2A2A2A" stroke-width="4" stroke-linecap="round" stroke-linejoin="round"/>
<path d="M64.6347 82.534V73.3518C64.6347 64.9208 59.5075 57.6926 52.2031 54.6011" stroke="#2A2A2A" stroke-width="4" stroke-linecap="round" stroke-linejoin="round"/>
<path d="M44.2835 52.5221C51.3297 52.5221 57.0417 46.8101 57.0417 39.7639C57.0417 32.7178 51.3297 27.0059 44.2835 27.0059C37.2374 27.0059 31.5254 32.7178 31.5254 39.7639C31.5254 46.8101 37.2374 52.5221 44.2835 52.5221Z" fill="#C6EAF2" stroke="#2A2A2A" stroke-width="4" stroke-linecap="round" stroke-linejoin="round"/>
<path d="M27.539 12.2907C31.3786 10.5306 35.56 9.35231 39.9867 8.87567C62.0715 6.49772 81.9007 22.4717 84.2787 44.5565C86.6566 66.6412 70.6825 86.4704 48.5977 88.8483C26.513 91.2263 6.68379 75.2522 4.30582 53.1675C3.84084 48.849 4.08001 44.6135 4.92679 40.5808" stroke="#2A2A2A" stroke-width="4" stroke-linecap="round" stroke-linejoin="round"/>
<path d="M108.112 52.722C108.112 53.8896 107.164 54.8366 105.994 54.8366H67.0364C65.8667 54.8366 64.918 53.8896 64.918 52.722V2.7805C64.918 1.79782 65.7173 1 66.7018 1H98.8946" fill="white"/>
<path d="M78.5165 10.3901H73.8569C73.4149 10.3901 73.0566 10.7484 73.0566 11.1904V15.8499C73.0566 16.2919 73.4149 16.6502 73.8569 16.6502H78.5165C78.9585 16.6502 79.3167 16.2919 79.3167 15.8499V11.1904C79.3167 10.7484 78.9585 10.3901 78.5165 10.3901Z" fill="#00882B" stroke="#00882B" stroke-width="2" stroke-miterlimit="10"/>
<path d="M74.3086 14.3861L75.7452 15.3981L78.0646 12.2681" stroke="white" stroke-width="1.5" stroke-linecap="round" stroke-linejoin="round"/>
<path d="M111.376 54.8303H68.5437C66.5436 54.8303 64.918 53.4805 64.918 51.8263V4.004C64.918 2.34976 66.5436 1 68.5437 1H111.369C113.373 1 114.999 2.4094 114.999 4.13584V7.35328C114.999 7.70799 114.668 7.99364 114.257 7.99364C113.846 7.99364 113.515 7.70799 113.515 7.35328V4.13584C113.515 3.11253 112.551 2.2807 111.366 2.2807H68.5401C67.3582 2.2807 66.3981 3.05289 66.3981 4.004V51.8326C66.3981 52.7837 67.3618 53.5559 68.5401 53.5559H111.373C112.555 53.5559 113.515 52.7837 113.515 51.8326V12.7774C113.515 12.4227 113.846 12.1371 114.257 12.1371C114.668 12.1371 114.999 12.4227 114.999 12.7774V51.8326C114.999 53.4868 113.373 54.8366 111.373 54.8366L111.376 54.8303Z" fill="#2A2A2A" stroke="#2A2A2A"/>
<path d="M99.2112 11.839H83.2645C82.901 11.839 82.6055 11.5434 82.6055 11.18C82.6055 10.8166 82.901 10.521 83.2645 10.521H99.2112C99.5746 10.521 99.8702 10.8166 99.8702 11.18C99.8702 11.5434 99.5746 11.839 99.2112 11.839Z" fill="#2A2A2A" stroke="#2A2A2A" stroke-width="0.75"/>
<path d="M107.045 16.316H83.2586C82.8952 16.316 82.5996 16.0205 82.5996 15.657C82.5996 15.2936 82.8952 14.998 83.2586 14.998H107.045C107.409 14.998 107.704 15.2936 107.704 15.657C107.704 16.0205 107.409 16.316 107.045 16.316Z" fill="#2A2A2A" stroke="#2A2A2A" stroke-width="0.75"/>
<path d="M99.2112 39.1588H83.2645C82.901 39.1588 82.6055 38.8632 82.6055 38.4998C82.6055 38.1364 82.901 37.8408 83.2645 37.8408H99.2112C99.5746 37.8408 99.8702 38.1364 99.8702 38.4998C99.8702 38.8632 99.5746 39.1588 99.2112 39.1588Z" fill="#2A2A2A" stroke="#2A2A2A" stroke-width="0.75"/>
<path d="M107.045 43.6354H83.2586C82.8952 43.6354 82.5996 43.3398 82.5996 42.9764C82.5996 42.613 82.8952 42.3174 83.2586 42.3174H107.045C107.409 42.3174 107.704 42.613 107.704 42.9764C107.704 43.3398 107.409 43.6354 107.045 43.6354Z" fill="#2A2A2A" stroke="#2A2A2A" stroke-width="0.75"/>
<path d="M107.178 25.4259H83.2606C82.8971 25.4259 82.6016 25.1303 82.6016 24.7669C82.6016 24.4035 82.8971 24.1079 83.2606 24.1079H107.178C107.542 24.1079 107.837 24.4035 107.837 24.7669C107.837 25.1303 107.542 25.4259 107.178 25.4259Z" fill="#2A2A2A" stroke="#2A2A2A" stroke-width="0.75"/>
<path d="M107.086 29.9029H102.323C101.96 29.9029 101.664 29.6074 101.664 29.244C101.664 28.8805 101.96 28.585 102.323 28.585H107.086C107.45 28.585 107.745 28.8805 107.745 29.244C107.745 29.6074 107.45 29.9029 107.086 29.9029Z" fill="#2A2A2A" stroke="#2A2A2A" stroke-width="0.75"/>
<path d="M99.1782 29.9034H83.2606C82.8971 29.9034 82.6016 29.6079 82.6016 29.2444C82.6016 28.881 82.8971 28.5854 83.2606 28.5854H99.1782C99.5416 28.5854 99.8372 28.881 99.8372 29.2444C99.8372 29.6079 99.5416 29.9034 99.1782 29.9034Z" fill="#2A2A2A" stroke="#2A2A2A" stroke-width="0.75"/>
<path d="M79.3347 30.7803H73.1082C72.7448 30.7803 72.4492 30.4847 72.4492 30.1213V23.89C72.4492 23.5265 72.7448 23.231 73.1082 23.231H79.3347C79.6982 23.231 79.9937 23.5265 79.9937 23.89V30.1213C79.9937 30.4847 79.6982 30.7803 79.3347 30.7803ZM73.7672 29.4623H78.6757V24.5489H73.7672V29.4623Z" fill="#2A2A2A" stroke="#2A2A2A" stroke-width="0.75"/>
<path d="M79.3347 44.5122H73.1082C72.7448 44.5122 72.4492 44.2167 72.4492 43.8532V37.6219C72.4492 37.2585 72.7448 36.9629 73.1082 36.9629H79.3347C79.6982 36.9629 79.9937 37.2585 79.9937 37.6219V43.8532C79.9937 44.2167 79.6982 44.5122 79.3347 44.5122ZM73.7672 43.1943H78.6757V38.2809H73.7672V43.1943Z" fill="#2A2A2A" stroke="#2A2A2A" stroke-width="0.75"/>
</svg>
